# xmcd
#
# Track frame offsets:
#	150
#	35548
#	55310
#	69693
#	83460
#	99050
#	110938
#	163458
#	177348
#	182090
#	185070
#	190318
#	196785
#	198878
#	203098
#	257733
#
# Disc length: 3681 seconds
#
# Revision: 1
# Processed by: cddbd v1.5.1PL0 Copyright (c) Steve Scherf et al.
# Submitted via: CDex 1.50Beta5
#
DISCID=e50e5f10
DTITLE=仲道デュオ - 愛の挨拶
DYEAR=1900
DGENRE=Classical
TTITLE0=ジュピター
TTITLE1=月の光
TTITLE2=小舟にて
TTITLE3=行列
TTITLE4=メヌエット
TTITLE5=バレエ
TTITLE6=だったん人の踊り
TTITLE7=愛の挨拶
TTITLE8=棒踊り
TTITLE9=腰帯踊り
TTITLE10=足踏み踊り
TTITLE11=ホーンパイプ踊り
TTITLE12=ルーマニアのポルカ
TTITLE13=速い踊り
TTITLE14=カルメン・ファンタジー
TTITLE15=ロンドンデリー
EXTD=
EXTT0=
EXTT1=
EXTT2=
EXTT3=
EXTT4=
EXTT5=
EXTT6=
EXTT7=
EXTT8=
EXTT9=
EXTT10=
EXTT11=
EXTT12=
EXTT13=
EXTT14=
EXTT15=
PLAYORDER=
